<svg aria-roledescription="architecture" role="graphics-document document" viewBox="-215.90841674804688 -165.8660888671875 479.8841552734375 462.732177734375" style="max-width: 479.8841552734375px;" xmlns="http://www.w3.org/2000/svg" width="100%" id="container"><style>#container{font-family:"trebuchet ms",verdana,arial,sans-serif;font-size:16px;fill:#333;}@keyframes edge-animation-frame{from{stroke-dashoffset:0;}}@keyframes dash{to{stroke-dashoffset:0;}}#container .edge-animation-slow{stroke-dasharray:9,5!important;stroke-dashoffset:900;animation:dash 50s linear infinite;stroke-linecap:round;}#container .edge-animation-fast{stroke-dasharray:9,5!important;stroke-dashoffset:900;animation:dash 20s linear infinite;stroke-linecap:round;}#container .error-icon{fill:#552222;}#container .error-text{fill:#552222;stroke:#552222;}#container .edge-thickness-normal{stroke-width:1px;}#container .edge-thickness-thick{stroke-width:3.5px;}#container .edge-pattern-solid{stroke-dasharray:0;}#container .edge-thickness-invisible{stroke-width:0;fill:none;}#container .edge-pattern-dashed{stroke-dasharray:3;}#container .edge-pattern-dotted{stroke-dasharray:2;}#container .marker{fill:#333333;stroke:#333333;}#container .marker.cross{stroke:#333333;}#container svg{font-family:"trebuchet ms",verdana,arial,sans-serif;font-size:16px;}#container p{margin:0;}#container .edge{stroke-width:3;stroke:#333333;fill:none;}#container .arrow{fill:#333333;}#container .node-bkg{fill:none;stroke:hsl(240, 60%, 86.2745098039%);stroke-width:2px;stroke-dasharray:8;}#container .node-icon-text{display:flex;align-items:center;}#container .node-icon-text&gt;div{color:#fff;margin:1px;height:fit-content;text-align:center;overflow:hidden;display:-webkit-box;-webkit-box-orient:vertical;}#container :root{--mermaid-font-family:"trebuchet ms",verdana,arial,sans-serif;}</style><g></g><g class="architecture-edges"><g><path class="edge" d="M 136.40842380794865,-3.3660852144790283 L 74.24677259995417,146.30055520335594 L165.97574234801738,157.366085214479"></path></g><g><path class="edge" d="M 136.40842380794865,-83.36608521447903 L 77.89769754189972,85.40685267225433 L165.97574234801738,157.366085214479"></path></g><g><path class="edge" d="M -34.90842380794865,157.366085214479 L 25.53365927003435,157.366085214479 L85.97574234801735,157.366085214479"></path></g></g><g class="architecture-services"><g transform="translate(96.40842380794865,-83.36608521447901)" class="architecture-service"><g transform="translate(40, 80)" text-anchor="middle" dominant-baseline="middle" alignment-baseline="middle" dy="1em"><g><rect style="stroke: none" class="background"></rect><text style="" y="-10.1"><tspan dy="1.1em" y="-0.1em" x="0" class="text-outer-tspan"><tspan font-weight="normal" class="text-inner-tspan" font-style="normal">Database</tspan></tspan></text></g></g><g><g><svg viewBox="0 0 80 80" height="80" width="80" xmlns="http://www.w3.org/2000/svg"><g><rect style="fill: #087ebf; stroke-width: 0px;" height="80" width="80"></rect><path style="fill: none; stroke: #fff; stroke-miterlimit: 10; stroke-width: 2px;" d="m20,57.86c0,3.94,8.95,7.14,20,7.14s20-3.2,20-7.14" data-name="4" id="IconifyId19722a27cfa7955ff0"></path><path style="fill: none; stroke: #fff; stroke-miterlimit: 10; stroke-width: 2px;" d="m20,45.95c0,3.94,8.95,7.14,20,7.14s20-3.2,20-7.14" data-name="3" id="IconifyId19722a27cfa7955ff1"></path><path style="fill: none; stroke: #fff; stroke-miterlimit: 10; stroke-width: 2px;" d="m20,34.05c0,3.94,8.95,7.14,20,7.14s20-3.2,20-7.14" data-name="2" id="IconifyId19722a27cfa7955ff2"></path><ellipse style="fill: none; stroke: #fff; stroke-miterlimit: 10; stroke-width: 2px;" ry="7.14" rx="20" cy="22.14" cx="40" data-name="1" id="IconifyId19722a27cfa7955ff3"></ellipse><line style="fill: none; stroke: #fff; stroke-miterlimit: 10; stroke-width: 2px;" y2="22.14" x2="20" y1="57.86" x1="20"></line><line style="fill: none; stroke: #fff; stroke-miterlimit: 10; stroke-width: 2px;" y2="22.14" x2="60" y1="57.86" x1="60"></line></g></svg></g></g></g><g transform="translate(96.40842380794865,-83.36608521447901)" class="architecture-service"><g transform="translate(40, 80)" text-anchor="middle" dominant-baseline="middle" alignment-baseline="middle" dy="1em"><g><rect style="stroke: none" class="background"></rect><text style="" y="-10.1"><tspan dy="1.1em" y="-0.1em" x="0" class="text-outer-tspan"><tspan font-weight="normal" class="text-inner-tspan" font-style="normal">MailServer</tspan></tspan></text></g></g><g><g><svg viewBox="0 0 80 80" height="80" width="80" xmlns="http://www.w3.org/2000/svg"><g><rect style="fill: #087ebf; stroke-width: 0px;" height="80" width="80"></rect><path style="fill: none; stroke: #fff; stroke-miterlimit: 10; stroke-width: 2px;" d="m20,57.86c0,3.94,8.95,7.14,20,7.14s20-3.2,20-7.14" data-name="4" id="IconifyId19722a27cfa7955ff4"></path><path style="fill: none; stroke: #fff; stroke-miterlimit: 10; stroke-width: 2px;" d="m20,45.95c0,3.94,8.95,7.14,20,7.14s20-3.2,20-7.14" data-name="3" id="IconifyId19722a27cfa7955ff5"></path><path style="fill: none; stroke: #fff; stroke-miterlimit: 10; stroke-width: 2px;" d="m20,34.05c0,3.94,8.95,7.14,20,7.14s20-3.2,20-7.14" data-name="2" id="IconifyId19722a27cfa7955ff6"></path><ellipse style="fill: none; stroke: #fff; stroke-miterlimit: 10; stroke-width: 2px;" ry="7.14" rx="20" cy="22.14" cx="40" data-name="1" id="IconifyId19722a27cfa7955ff7"></ellipse><line style="fill: none; stroke: #fff; stroke-miterlimit: 10; stroke-width: 2px;" y2="22.14" x2="20" y1="57.86" x1="20"></line><line style="fill: none; stroke: #fff; stroke-miterlimit: 10; stroke-width: 2px;" y2="22.14" x2="60" y1="57.86" x1="60"></line></g></svg></g></g></g><g transform="translate(-114.90842380794865,117.366085214479)" class="architecture-service"><g transform="translate(40, 80)" text-anchor="middle" dominant-baseline="middle" alignment-baseline="middle" dy="1em"><g><rect style="stroke: none" class="background"></rect><text style="" y="-10.1"><tspan dy="1.1em" y="-0.1em" x="0" class="text-outer-tspan"><tspan font-weight="normal" class="text-inner-tspan" font-style="normal">ConnectionPool</tspan></tspan></text></g></g><g><g><svg viewBox="0 0 80 80" height="80" width="80" xmlns="http://www.w3.org/2000/svg"><g><rect style="fill: #087ebf; stroke-width: 0px;" height="80" width="80"></rect><rect style="fill: none; stroke: #fff; stroke-miterlimit: 10; stroke-width: 2px;" ry="2" rx="2" height="45" width="45" y="17.5" x="17.5"></rect><line style="fill: none; stroke: #fff; stroke-miterlimit: 10; stroke-width: 2px;" y2="32.5" x2="62.5" y1="32.5" x1="17.5"></line><line style="fill: none; stroke: #fff; stroke-miterlimit: 10; stroke-width: 2px;" y2="47.5" x2="62.5" y1="47.5" x1="17.5"></line><g><path style="fill: #fff; stroke-width: 0px;" d="m56.25,25c0,.27-.45.5-1,.5h-10.5c-.55,0-1-.23-1-.5s.45-.5,1-.5h10.5c.55,0,1,.23,1,.5Z"></path><path style="fill: none; stroke: #fff; stroke-miterlimit: 10;" d="m56.25,25c0,.27-.45.5-1,.5h-10.5c-.55,0-1-.23-1-.5s.45-.5,1-.5h10.5c.55,0,1,.23,1,.5Z"></path></g><g><path style="fill: #fff; stroke-width: 0px;" d="m56.25,40c0,.27-.45.5-1,.5h-10.5c-.55,0-1-.23-1-.5s.45-.5,1-.5h10.5c.55,0,1,.23,1,.5Z"></path><path style="fill: none; stroke: #fff; stroke-miterlimit: 10;" d="m56.25,40c0,.27-.45.5-1,.5h-10.5c-.55,0-1-.23-1-.5s.45-.5,1-.5h10.5c.55,0,1,.23,1,.5Z"></path></g><g><path style="fill: #fff; stroke-width: 0px;" d="m56.25,55c0,.27-.45.5-1,.5h-10.5c-.55,0-1-.23-1-.5s.45-.5,1-.5h10.5c.55,0,1,.23,1,.5Z"></path><path style="fill: none; stroke: #fff; stroke-miterlimit: 10;" d="m56.25,55c0,.27-.45.5-1,.5h-10.5c-.55,0-1-.23-1-.5s.45-.5,1-.5h10.5c.55,0,1,.23,1,.5Z"></path></g><g><circle style="fill: #fff; stroke: #fff; stroke-miterlimit: 10;" r=".75" cy="25" cx="32.5"></circle><circle style="fill: #fff; stroke: #fff; stroke-miterlimit: 10;" r=".75" cy="25" cx="27.5"></circle><circle style="fill: #fff; stroke: #fff; stroke-miterlimit: 10;" r=".75" cy="25" cx="22.5"></circle></g><g><circle style="fill: #fff; stroke: #fff; stroke-miterlimit: 10;" r=".75" cy="40" cx="32.5"></circle><circle style="fill: #fff; stroke: #fff; stroke-miterlimit: 10;" r=".75" cy="40" cx="27.5"></circle><circle style="fill: #fff; stroke: #fff; stroke-miterlimit: 10;" r=".75" cy="40" cx="22.5"></circle></g><g><circle style="fill: #fff; stroke: #fff; stroke-miterlimit: 10;" r=".75" cy="55" cx="32.5"></circle><circle style="fill: #fff; stroke: #fff; stroke-miterlimit: 10;" r=".75" cy="55" cx="27.5"></circle><circle style="fill: #fff; stroke: #fff; stroke-miterlimit: 10;" r=".75" cy="55" cx="22.5"></circle></g></g></svg></g></g></g><g transform="translate(85.97574234801736,117.366085214479)" class="architecture-service"><g transform="translate(40, 80)" text-anchor="middle" dominant-baseline="middle" alignment-baseline="middle" dy="1em"><g><rect style="stroke: none" class="background"></rect><text style="" y="-10.1"><tspan dy="1.1em" y="-0.1em" x="0" class="text-outer-tspan"><tspan font-weight="normal" class="text-inner-tspan" font-style="normal">NotificationAPI</tspan></tspan></text></g></g><g><g><svg viewBox="0 0 80 80" height="80" width="80" xmlns="http://www.w3.org/2000/svg"><g><rect style="fill: #087ebf; stroke-width: 0px;" height="80" width="80"></rect><rect style="fill: none; stroke: #fff; stroke-miterlimit: 10; stroke-width: 2px;" ry="2" rx="2" height="45" width="45" y="17.5" x="17.5"></rect><line style="fill: none; stroke: #fff; stroke-miterlimit: 10; stroke-width: 2px;" y2="32.5" x2="62.5" y1="32.5" x1="17.5"></line><line style="fill: none; stroke: #fff; stroke-miterlimit: 10; stroke-width: 2px;" y2="47.5" x2="62.5" y1="47.5" x1="17.5"></line><g><path style="fill: #fff; stroke-width: 0px;" d="m56.25,25c0,.27-.45.5-1,.5h-10.5c-.55,0-1-.23-1-.5s.45-.5,1-.5h10.5c.55,0,1,.23,1,.5Z"></path><path style="fill: none; stroke: #fff; stroke-miterlimit: 10;" d="m56.25,25c0,.27-.45.5-1,.5h-10.5c-.55,0-1-.23-1-.5s.45-.5,1-.5h10.5c.55,0,1,.23,1,.5Z"></path></g><g><path style="fill: #fff; stroke-width: 0px;" d="m56.25,40c0,.27-.45.5-1,.5h-10.5c-.55,0-1-.23-1-.5s.45-.5,1-.5h10.5c.55,0,1,.23,1,.5Z"></path><path style="fill: none; stroke: #fff; stroke-miterlimit: 10;" d="m56.25,40c0,.27-.45.5-1,.5h-10.5c-.55,0-1-.23-1-.5s.45-.5,1-.5h10.5c.55,0,1,.23,1,.5Z"></path></g><g><path style="fill: #fff; stroke-width: 0px;" d="m56.25,55c0,.27-.45.5-1,.5h-10.5c-.55,0-1-.23-1-.5s.45-.5,1-.5h10.5c.55,0,1,.23,1,.5Z"></path><path style="fill: none; stroke: #fff; stroke-miterlimit: 10;" d="m56.25,55c0,.27-.45.5-1,.5h-10.5c-.55,0-1-.23-1-.5s.45-.5,1-.5h10.5c.55,0,1,.23,1,.5Z"></path></g><g><circle style="fill: #fff; stroke: #fff; stroke-miterlimit: 10;" r=".75" cy="25" cx="32.5"></circle><circle style="fill: #fff; stroke: #fff; stroke-miterlimit: 10;" r=".75" cy="25" cx="27.5"></circle><circle style="fill: #fff; stroke: #fff; stroke-miterlimit: 10;" r=".75" cy="25" cx="22.5"></circle></g><g><circle style="fill: #fff; stroke: #fff; stroke-miterlimit: 10;" r=".75" cy="40" cx="32.5"></circle><circle style="fill: #fff; stroke: #fff; stroke-miterlimit: 10;" r=".75" cy="40" cx="27.5"></circle><circle style="fill: #fff; stroke: #fff; stroke-miterlimit: 10;" r=".75" cy="40" cx="22.5"></circle></g><g><circle style="fill: #fff; stroke: #fff; stroke-miterlimit: 10;" r=".75" cy="55" cx="32.5"></circle><circle style="fill: #fff; stroke: #fff; stroke-miterlimit: 10;" r=".75" cy="55" cx="27.5"></circle><circle style="fill: #fff; stroke: #fff; stroke-miterlimit: 10;" r=".75" cy="55" cx="22.5"></circle></g></g></svg></g></g></g></g><g class="architecture-groups"><rect class="node-bkg" height="382.732170428958" width="399.884166155966" y="-125.866085214479" x="-175.90842380794862"></rect><g><g transform="translate(-174.90842380794862, -124.866085214479)"><g><svg viewBox="0 0 80 80" height="30" width="30" xmlns="http://www.w3.org/2000/svg"><g><rect style="fill: #087ebf; stroke-width: 0px;" height="80" width="80"></rect><path style="fill: none; stroke: #fff; stroke-miterlimit: 10; stroke-width: 2px;" d="m65,47.5c0,2.76-2.24,5-5,5H20c-2.76,0-5-2.24-5-5,0-1.87,1.03-3.51,2.56-4.36-.04-.21-.06-.42-.06-.64,0-2.6,2.48-4.74,5.65-4.97,1.65-4.51,6.34-7.76,11.85-7.76.86,0,1.69.08,2.5.23,2.09-1.57,4.69-2.5,7.5-2.5,6.1,0,11.19,4.38,12.28,10.17,2.14.56,3.72,2.51,3.72,4.83,0,.03,0,.07-.01.1,2.29.46,4.01,2.48,4.01,4.9Z"></path></g></svg></g></g><g transform="translate(-141.90842380794862, -118.866085214479)" text-anchor="start" dominant-baseline="start" alignment-baseline="middle" dy="1em"><g><rect style="stroke: none" class="background"></rect><text style="" y="-10.1"><tspan dy="1.1em" y="-0.1em" x="0" class="text-outer-tspan"><tspan font-weight="normal" class="text-inner-tspan" font-style="normal">NotificationService</tspan></tspan></text></g></g></g></g></svg>