<svg aria-roledescription="architecture" role="graphics-document document" viewBox="-305.2278137207031 -265.13487243652344 686.4556274414062 661.2697143554688" style="max-width: 686.4556274414062px;" xmlns="http://www.w3.org/2000/svg" width="100%" id="container"><style>#container{font-family:"trebuchet ms",verdana,arial,sans-serif;font-size:16px;fill:#333;}@keyframes edge-animation-frame{from{stroke-dashoffset:0;}}@keyframes dash{to{stroke-dashoffset:0;}}#container .edge-animation-slow{stroke-dasharray:9,5!important;stroke-dashoffset:900;animation:dash 50s linear infinite;stroke-linecap:round;}#container .edge-animation-fast{stroke-dasharray:9,5!important;stroke-dashoffset:900;animation:dash 20s linear infinite;stroke-linecap:round;}#container .error-icon{fill:#552222;}#container .error-text{fill:#552222;stroke:#552222;}#container .edge-thickness-normal{stroke-width:1px;}#container .edge-thickness-thick{stroke-width:3.5px;}#container .edge-pattern-solid{stroke-dasharray:0;}#container .edge-thickness-invisible{stroke-width:0;fill:none;}#container .edge-pattern-dashed{stroke-dasharray:3;}#container .edge-pattern-dotted{stroke-dasharray:2;}#container .marker{fill:#333333;stroke:#333333;}#container .marker.cross{stroke:#333333;}#container svg{font-family:"trebuchet ms",verdana,arial,sans-serif;font-size:16px;}#container p{margin:0;}#container .edge{stroke-width:3;stroke:#333333;fill:none;}#container .arrow{fill:#333333;}#container .node-bkg{fill:none;stroke:hsl(240, 60%, 86.2745098039%);stroke-width:2px;stroke-dasharray:8;}#container .node-icon-text{display:flex;align-items:center;}#container .node-icon-text&gt;div{color:#fff;margin:1px;height:fit-content;text-align:center;overflow:hidden;display:-webkit-box;-webkit-box-orient:vertical;}#container :root{--mermaid-font-family:"trebuchet ms",verdana,arial,sans-serif;}</style><g></g><g class="architecture-edges"><g><path class="edge" d="M -118.22780135034492,56.321615924927904 L -58.02426921784061,56.321615924927904 L2.1792629146636955,56.321615924927904"></path></g><g><path class="edge" d="M 167.62643469218222,247.66805120074818 L 84.90284880342296,151.99483356283804 L2.1792629146636955,56.3216159249279"></path></g><g><path class="edge" d="M 144.32259537101208,-142.63486847337765 L 73.25092914283789,-43.15662627422488 L2.1792629146636884,56.3216159249279"></path></g><g><path class="edge" d="M 37.161805973670326,256.6348684733777 L 19.67053444416701,156.4782421991528 L2.1792629146636884,56.3216159249279"></path></g><g><path class="edge" d="M 265.22780135034475,-68.86182007411028 L 133.70353213250422,-6.270102074591193 L2.1792629146636955,56.3216159249279"></path></g><g><path class="edge" d="M -97.13110139797539,-79.42529637460731 L -47.475919241655845,-11.551840224839708 L2.1792629146636955,56.3216159249279"></path></g><g><path class="edge" d="M -85.81056030526545,224.18080005008645 L -41.81564869530088,140.25120798750717 L2.1792629146636955,56.3216159249279"></path></g><g><path class="edge" d="M 22.187151557809756,-140.24269747684107 L 12.183207236236722,-41.96054077595659 L2.1792629146636884,56.3216159249279"></path></g><g><path class="edge" d="M -118.22780135034492,56.321615924927904 L -58.02426921784061,56.321615924927904 L2.1792629146636955,56.321615924927904"></path></g></g><g class="architecture-services"><g transform="translate(-198.22780135034492,16.321615924927904)" class="architecture-service"><g transform="translate(40, 80)" text-anchor="middle" dominant-baseline="middle" alignment-baseline="middle" dy="1em"><g><rect style="stroke: none" class="background"></rect><text style="" y="-10.1"><tspan dy="1.1em" y="-0.1em" x="0" class="text-outer-tspan"><tspan font-weight="normal" class="text-inner-tspan" font-style="normal">UsersService</tspan></tspan></text></g></g><g><g><svg viewBox="0 0 80 80" height="80" width="80" xmlns="http://www.w3.org/2000/svg"><g><rect style="fill: #087ebf; stroke-width: 0px;" height="80" width="80"></rect><rect style="fill: none; stroke: #fff; stroke-miterlimit: 10; stroke-width: 2px;" ry="2" rx="2" height="45" width="45" y="17.5" x="17.5"></rect><line style="fill: none; stroke: #fff; stroke-miterlimit: 10; stroke-width: 2px;" y2="32.5" x2="62.5" y1="32.5" x1="17.5"></line><line style="fill: none; stroke: #fff; stroke-miterlimit: 10; stroke-width: 2px;" y2="47.5" x2="62.5" y1="47.5" x1="17.5"></line><g><path style="fill: #fff; stroke-width: 0px;" d="m56.25,25c0,.27-.45.5-1,.5h-10.5c-.55,0-1-.23-1-.5s.45-.5,1-.5h10.5c.55,0,1,.23,1,.5Z"></path><path style="fill: none; stroke: #fff; stroke-miterlimit: 10;" d="m56.25,25c0,.27-.45.5-1,.5h-10.5c-.55,0-1-.23-1-.5s.45-.5,1-.5h10.5c.55,0,1,.23,1,.5Z"></path></g><g><path style="fill: #fff; stroke-width: 0px;" d="m56.25,40c0,.27-.45.5-1,.5h-10.5c-.55,0-1-.23-1-.5s.45-.5,1-.5h10.5c.55,0,1,.23,1,.5Z"></path><path style="fill: none; stroke: #fff; stroke-miterlimit: 10;" d="m56.25,40c0,.27-.45.5-1,.5h-10.5c-.55,0-1-.23-1-.5s.45-.5,1-.5h10.5c.55,0,1,.23,1,.5Z"></path></g><g><path style="fill: #fff; stroke-width: 0px;" d="m56.25,55c0,.27-.45.5-1,.5h-10.5c-.55,0-1-.23-1-.5s.45-.5,1-.5h10.5c.55,0,1,.23,1,.5Z"></path><path style="fill: none; stroke: #fff; stroke-miterlimit: 10;" d="m56.25,55c0,.27-.45.5-1,.5h-10.5c-.55,0-1-.23-1-.5s.45-.5,1-.5h10.5c.55,0,1,.23,1,.5Z"></path></g><g><circle style="fill: #fff; stroke: #fff; stroke-miterlimit: 10;" r=".75" cy="25" cx="32.5"></circle><circle style="fill: #fff; stroke: #fff; stroke-miterlimit: 10;" r=".75" cy="25" cx="27.5"></circle><circle style="fill: #fff; stroke: #fff; stroke-miterlimit: 10;" r=".75" cy="25" cx="22.5"></circle></g><g><circle style="fill: #fff; stroke: #fff; stroke-miterlimit: 10;" r=".75" cy="40" cx="32.5"></circle><circle style="fill: #fff; stroke: #fff; stroke-miterlimit: 10;" r=".75" cy="40" cx="27.5"></circle><circle style="fill: #fff; stroke: #fff; stroke-miterlimit: 10;" r=".75" cy="40" cx="22.5"></circle></g><g><circle style="fill: #fff; stroke: #fff; stroke-miterlimit: 10;" r=".75" cy="55" cx="32.5"></circle><circle style="fill: #fff; stroke: #fff; stroke-miterlimit: 10;" r=".75" cy="55" cx="27.5"></circle><circle style="fill: #fff; stroke: #fff; stroke-miterlimit: 10;" r=".75" cy="55" cx="22.5"></circle></g></g></svg></g></g></g><g transform="translate(87.62643469218222,207.66805120074818)" class="architecture-service"><g transform="translate(40, 80)" text-anchor="middle" dominant-baseline="middle" alignment-baseline="middle" dy="1em"><g><rect style="stroke: none" class="background"></rect><text style="" y="-10.1"><tspan dy="1.1em" y="-0.1em" x="0" class="text-outer-tspan"><tspan font-weight="normal" class="text-inner-tspan" font-style="normal">ChannelsService</tspan></tspan></text></g></g><g><g><svg viewBox="0 0 80 80" height="80" width="80" xmlns="http://www.w3.org/2000/svg"><g><rect style="fill: #087ebf; stroke-width: 0px;" height="80" width="80"></rect><rect style="fill: none; stroke: #fff; stroke-miterlimit: 10; stroke-width: 2px;" ry="2" rx="2" height="45" width="45" y="17.5" x="17.5"></rect><line style="fill: none; stroke: #fff; stroke-miterlimit: 10; stroke-width: 2px;" y2="32.5" x2="62.5" y1="32.5" x1="17.5"></line><line style="fill: none; stroke: #fff; stroke-miterlimit: 10; stroke-width: 2px;" y2="47.5" x2="62.5" y1="47.5" x1="17.5"></line><g><path style="fill: #fff; stroke-width: 0px;" d="m56.25,25c0,.27-.45.5-1,.5h-10.5c-.55,0-1-.23-1-.5s.45-.5,1-.5h10.5c.55,0,1,.23,1,.5Z"></path><path style="fill: none; stroke: #fff; stroke-miterlimit: 10;" d="m56.25,25c0,.27-.45.5-1,.5h-10.5c-.55,0-1-.23-1-.5s.45-.5,1-.5h10.5c.55,0,1,.23,1,.5Z"></path></g><g><path style="fill: #fff; stroke-width: 0px;" d="m56.25,40c0,.27-.45.5-1,.5h-10.5c-.55,0-1-.23-1-.5s.45-.5,1-.5h10.5c.55,0,1,.23,1,.5Z"></path><path style="fill: none; stroke: #fff; stroke-miterlimit: 10;" d="m56.25,40c0,.27-.45.5-1,.5h-10.5c-.55,0-1-.23-1-.5s.45-.5,1-.5h10.5c.55,0,1,.23,1,.5Z"></path></g><g><path style="fill: #fff; stroke-width: 0px;" d="m56.25,55c0,.27-.45.5-1,.5h-10.5c-.55,0-1-.23-1-.5s.45-.5,1-.5h10.5c.55,0,1,.23,1,.5Z"></path><path style="fill: none; stroke: #fff; stroke-miterlimit: 10;" d="m56.25,55c0,.27-.45.5-1,.5h-10.5c-.55,0-1-.23-1-.5s.45-.5,1-.5h10.5c.55,0,1,.23,1,.5Z"></path></g><g><circle style="fill: #fff; stroke: #fff; stroke-miterlimit: 10;" r=".75" cy="25" cx="32.5"></circle><circle style="fill: #fff; stroke: #fff; stroke-miterlimit: 10;" r=".75" cy="25" cx="27.5"></circle><circle style="fill: #fff; stroke: #fff; stroke-miterlimit: 10;" r=".75" cy="25" cx="22.5"></circle></g><g><circle style="fill: #fff; stroke: #fff; stroke-miterlimit: 10;" r=".75" cy="40" cx="32.5"></circle><circle style="fill: #fff; stroke: #fff; stroke-miterlimit: 10;" r=".75" cy="40" cx="27.5"></circle><circle style="fill: #fff; stroke: #fff; stroke-miterlimit: 10;" r=".75" cy="40" cx="22.5"></circle></g><g><circle style="fill: #fff; stroke: #fff; stroke-miterlimit: 10;" r=".75" cy="55" cx="32.5"></circle><circle style="fill: #fff; stroke: #fff; stroke-miterlimit: 10;" r=".75" cy="55" cx="27.5"></circle><circle style="fill: #fff; stroke: #fff; stroke-miterlimit: 10;" r=".75" cy="55" cx="22.5"></circle></g></g></svg></g></g></g><g transform="translate(64.3225953710121,-182.63486847337765)" class="architecture-service"><g transform="translate(40, 80)" text-anchor="middle" dominant-baseline="middle" alignment-baseline="middle" dy="1em"><g><rect style="stroke: none" class="background"></rect><text style="" y="-10.1"><tspan dy="1.1em" y="-0.1em" x="0" class="text-outer-tspan"><tspan font-weight="normal" class="text-inner-tspan" font-style="normal">ServersService</tspan></tspan></text></g></g><g><g><svg viewBox="0 0 80 80" height="80" width="80" xmlns="http://www.w3.org/2000/svg"><g><rect style="fill: #087ebf; stroke-width: 0px;" height="80" width="80"></rect><rect style="fill: none; stroke: #fff; stroke-miterlimit: 10; stroke-width: 2px;" ry="2" rx="2" height="45" width="45" y="17.5" x="17.5"></rect><line style="fill: none; stroke: #fff; stroke-miterlimit: 10; stroke-width: 2px;" y2="32.5" x2="62.5" y1="32.5" x1="17.5"></line><line style="fill: none; stroke: #fff; stroke-miterlimit: 10; stroke-width: 2px;" y2="47.5" x2="62.5" y1="47.5" x1="17.5"></line><g><path style="fill: #fff; stroke-width: 0px;" d="m56.25,25c0,.27-.45.5-1,.5h-10.5c-.55,0-1-.23-1-.5s.45-.5,1-.5h10.5c.55,0,1,.23,1,.5Z"></path><path style="fill: none; stroke: #fff; stroke-miterlimit: 10;" d="m56.25,25c0,.27-.45.5-1,.5h-10.5c-.55,0-1-.23-1-.5s.45-.5,1-.5h10.5c.55,0,1,.23,1,.5Z"></path></g><g><path style="fill: #fff; stroke-width: 0px;" d="m56.25,40c0,.27-.45.5-1,.5h-10.5c-.55,0-1-.23-1-.5s.45-.5,1-.5h10.5c.55,0,1,.23,1,.5Z"></path><path style="fill: none; stroke: #fff; stroke-miterlimit: 10;" d="m56.25,40c0,.27-.45.5-1,.5h-10.5c-.55,0-1-.23-1-.5s.45-.5,1-.5h10.5c.55,0,1,.23,1,.5Z"></path></g><g><path style="fill: #fff; stroke-width: 0px;" d="m56.25,55c0,.27-.45.5-1,.5h-10.5c-.55,0-1-.23-1-.5s.45-.5,1-.5h10.5c.55,0,1,.23,1,.5Z"></path><path style="fill: none; stroke: #fff; stroke-miterlimit: 10;" d="m56.25,55c0,.27-.45.5-1,.5h-10.5c-.55,0-1-.23-1-.5s.45-.5,1-.5h10.5c.55,0,1,.23,1,.5Z"></path></g><g><circle style="fill: #fff; stroke: #fff; stroke-miterlimit: 10;" r=".75" cy="25" cx="32.5"></circle><circle style="fill: #fff; stroke: #fff; stroke-miterlimit: 10;" r=".75" cy="25" cx="27.5"></circle><circle style="fill: #fff; stroke: #fff; stroke-miterlimit: 10;" r=".75" cy="25" cx="22.5"></circle></g><g><circle style="fill: #fff; stroke: #fff; stroke-miterlimit: 10;" r=".75" cy="40" cx="32.5"></circle><circle style="fill: #fff; stroke: #fff; stroke-miterlimit: 10;" r=".75" cy="40" cx="27.5"></circle><circle style="fill: #fff; stroke: #fff; stroke-miterlimit: 10;" r=".75" cy="40" cx="22.5"></circle></g><g><circle style="fill: #fff; stroke: #fff; stroke-miterlimit: 10;" r=".75" cy="55" cx="32.5"></circle><circle style="fill: #fff; stroke: #fff; stroke-miterlimit: 10;" r=".75" cy="55" cx="27.5"></circle><circle style="fill: #fff; stroke: #fff; stroke-miterlimit: 10;" r=".75" cy="55" cx="22.5"></circle></g></g></svg></g></g></g><g transform="translate(-42.838194026329674,216.6348684733777)" class="architecture-service"><g transform="translate(40, 80)" text-anchor="middle" dominant-baseline="middle" alignment-baseline="middle" dy="1em"><g><rect style="stroke: none" class="background"></rect><text style="" y="-10.1"><tspan dy="1.1em" y="-0.1em" x="0" class="text-outer-tspan"><tspan font-weight="normal" class="text-inner-tspan" font-style="normal">MessagesServic</tspan></tspan><tspan dy="1.1em" y="1em" x="0" class="text-outer-tspan"><tspan font-weight="normal" class="text-inner-tspan" font-style="normal">e</tspan></tspan></text></g></g><g><g><svg viewBox="0 0 80 80" height="80" width="80" xmlns="http://www.w3.org/2000/svg"><g><rect style="fill: #087ebf; stroke-width: 0px;" height="80" width="80"></rect><rect style="fill: none; stroke: #fff; stroke-miterlimit: 10; stroke-width: 2px;" ry="2" rx="2" height="45" width="45" y="17.5" x="17.5"></rect><line style="fill: none; stroke: #fff; stroke-miterlimit: 10; stroke-width: 2px;" y2="32.5" x2="62.5" y1="32.5" x1="17.5"></line><line style="fill: none; stroke: #fff; stroke-miterlimit: 10; stroke-width: 2px;" y2="47.5" x2="62.5" y1="47.5" x1="17.5"></line><g><path style="fill: #fff; stroke-width: 0px;" d="m56.25,25c0,.27-.45.5-1,.5h-10.5c-.55,0-1-.23-1-.5s.45-.5,1-.5h10.5c.55,0,1,.23,1,.5Z"></path><path style="fill: none; stroke: #fff; stroke-miterlimit: 10;" d="m56.25,25c0,.27-.45.5-1,.5h-10.5c-.55,0-1-.23-1-.5s.45-.5,1-.5h10.5c.55,0,1,.23,1,.5Z"></path></g><g><path style="fill: #fff; stroke-width: 0px;" d="m56.25,40c0,.27-.45.5-1,.5h-10.5c-.55,0-1-.23-1-.5s.45-.5,1-.5h10.5c.55,0,1,.23,1,.5Z"></path><path style="fill: none; stroke: #fff; stroke-miterlimit: 10;" d="m56.25,40c0,.27-.45.5-1,.5h-10.5c-.55,0-1-.23-1-.5s.45-.5,1-.5h10.5c.55,0,1,.23,1,.5Z"></path></g><g><path style="fill: #fff; stroke-width: 0px;" d="m56.25,55c0,.27-.45.5-1,.5h-10.5c-.55,0-1-.23-1-.5s.45-.5,1-.5h10.5c.55,0,1,.23,1,.5Z"></path><path style="fill: none; stroke: #fff; stroke-miterlimit: 10;" d="m56.25,55c0,.27-.45.5-1,.5h-10.5c-.55,0-1-.23-1-.5s.45-.5,1-.5h10.5c.55,0,1,.23,1,.5Z"></path></g><g><circle style="fill: #fff; stroke: #fff; stroke-miterlimit: 10;" r=".75" cy="25" cx="32.5"></circle><circle style="fill: #fff; stroke: #fff; stroke-miterlimit: 10;" r=".75" cy="25" cx="27.5"></circle><circle style="fill: #fff; stroke: #fff; stroke-miterlimit: 10;" r=".75" cy="25" cx="22.5"></circle></g><g><circle style="fill: #fff; stroke: #fff; stroke-miterlimit: 10;" r=".75" cy="40" cx="32.5"></circle><circle style="fill: #fff; stroke: #fff; stroke-miterlimit: 10;" r=".75" cy="40" cx="27.5"></circle><circle style="fill: #fff; stroke: #fff; stroke-miterlimit: 10;" r=".75" cy="40" cx="22.5"></circle></g><g><circle style="fill: #fff; stroke: #fff; stroke-miterlimit: 10;" r=".75" cy="55" cx="32.5"></circle><circle style="fill: #fff; stroke: #fff; stroke-miterlimit: 10;" r=".75" cy="55" cx="27.5"></circle><circle style="fill: #fff; stroke: #fff; stroke-miterlimit: 10;" r=".75" cy="55" cx="22.5"></circle></g></g></svg></g></g></g><g transform="translate(185.22780135034475,-108.86182007411028)" class="architecture-service"><g transform="translate(40, 80)" text-anchor="middle" dominant-baseline="middle" alignment-baseline="middle" dy="1em"><g><rect style="stroke: none" class="background"></rect><text style="" y="-10.1"><tspan dy="1.1em" y="-0.1em" x="0" class="text-outer-tspan"><tspan font-weight="normal" class="text-inner-tspan" font-style="normal">NotificationsSer</tspan></tspan><tspan dy="1.1em" y="1em" x="0" class="text-outer-tspan"><tspan font-weight="normal" class="text-inner-tspan" font-style="normal">vice</tspan></tspan></text></g></g><g><g><svg viewBox="0 0 80 80" height="80" width="80" xmlns="http://www.w3.org/2000/svg"><g><rect style="fill: #087ebf; stroke-width: 0px;" height="80" width="80"></rect><rect style="fill: none; stroke: #fff; stroke-miterlimit: 10; stroke-width: 2px;" ry="2" rx="2" height="45" width="45" y="17.5" x="17.5"></rect><line style="fill: none; stroke: #fff; stroke-miterlimit: 10; stroke-width: 2px;" y2="32.5" x2="62.5" y1="32.5" x1="17.5"></line><line style="fill: none; stroke: #fff; stroke-miterlimit: 10; stroke-width: 2px;" y2="47.5" x2="62.5" y1="47.5" x1="17.5"></line><g><path style="fill: #fff; stroke-width: 0px;" d="m56.25,25c0,.27-.45.5-1,.5h-10.5c-.55,0-1-.23-1-.5s.45-.5,1-.5h10.5c.55,0,1,.23,1,.5Z"></path><path style="fill: none; stroke: #fff; stroke-miterlimit: 10;" d="m56.25,25c0,.27-.45.5-1,.5h-10.5c-.55,0-1-.23-1-.5s.45-.5,1-.5h10.5c.55,0,1,.23,1,.5Z"></path></g><g><path style="fill: #fff; stroke-width: 0px;" d="m56.25,40c0,.27-.45.5-1,.5h-10.5c-.55,0-1-.23-1-.5s.45-.5,1-.5h10.5c.55,0,1,.23,1,.5Z"></path><path style="fill: none; stroke: #fff; stroke-miterlimit: 10;" d="m56.25,40c0,.27-.45.5-1,.5h-10.5c-.55,0-1-.23-1-.5s.45-.5,1-.5h10.5c.55,0,1,.23,1,.5Z"></path></g><g><path style="fill: #fff; stroke-width: 0px;" d="m56.25,55c0,.27-.45.5-1,.5h-10.5c-.55,0-1-.23-1-.5s.45-.5,1-.5h10.5c.55,0,1,.23,1,.5Z"></path><path style="fill: none; stroke: #fff; stroke-miterlimit: 10;" d="m56.25,55c0,.27-.45.5-1,.5h-10.5c-.55,0-1-.23-1-.5s.45-.5,1-.5h10.5c.55,0,1,.23,1,.5Z"></path></g><g><circle style="fill: #fff; stroke: #fff; stroke-miterlimit: 10;" r=".75" cy="25" cx="32.5"></circle><circle style="fill: #fff; stroke: #fff; stroke-miterlimit: 10;" r=".75" cy="25" cx="27.5"></circle><circle style="fill: #fff; stroke: #fff; stroke-miterlimit: 10;" r=".75" cy="25" cx="22.5"></circle></g><g><circle style="fill: #fff; stroke: #fff; stroke-miterlimit: 10;" r=".75" cy="40" cx="32.5"></circle><circle style="fill: #fff; stroke: #fff; stroke-miterlimit: 10;" r=".75" cy="40" cx="27.5"></circle><circle style="fill: #fff; stroke: #fff; stroke-miterlimit: 10;" r=".75" cy="40" cx="22.5"></circle></g><g><circle style="fill: #fff; stroke: #fff; stroke-miterlimit: 10;" r=".75" cy="55" cx="32.5"></circle><circle style="fill: #fff; stroke: #fff; stroke-miterlimit: 10;" r=".75" cy="55" cx="27.5"></circle><circle style="fill: #fff; stroke: #fff; stroke-miterlimit: 10;" r=".75" cy="55" cx="22.5"></circle></g></g></svg></g></g></g><g transform="translate(-177.13110139797539,-119.42529637460731)" class="architecture-service"><g transform="translate(40, 80)" text-anchor="middle" dominant-baseline="middle" alignment-baseline="middle" dy="1em"><g><rect style="stroke: none" class="background"></rect><text style="" y="-10.1"><tspan dy="1.1em" y="-0.1em" x="0" class="text-outer-tspan"><tspan font-weight="normal" class="text-inner-tspan" font-style="normal">VoiceCallsServic</tspan></tspan><tspan dy="1.1em" y="1em" x="0" class="text-outer-tspan"><tspan font-weight="normal" class="text-inner-tspan" font-style="normal">e</tspan></tspan></text></g></g><g><g><svg viewBox="0 0 80 80" height="80" width="80" xmlns="http://www.w3.org/2000/svg"><g><rect style="fill: #087ebf; stroke-width: 0px;" height="80" width="80"></rect><rect style="fill: none; stroke: #fff; stroke-miterlimit: 10; stroke-width: 2px;" ry="2" rx="2" height="45" width="45" y="17.5" x="17.5"></rect><line style="fill: none; stroke: #fff; stroke-miterlimit: 10; stroke-width: 2px;" y2="32.5" x2="62.5" y1="32.5" x1="17.5"></line><line style="fill: none; stroke: #fff; stroke-miterlimit: 10; stroke-width: 2px;" y2="47.5" x2="62.5" y1="47.5" x1="17.5"></line><g><path style="fill: #fff; stroke-width: 0px;" d="m56.25,25c0,.27-.45.5-1,.5h-10.5c-.55,0-1-.23-1-.5s.45-.5,1-.5h10.5c.55,0,1,.23,1,.5Z"></path><path style="fill: none; stroke: #fff; stroke-miterlimit: 10;" d="m56.25,25c0,.27-.45.5-1,.5h-10.5c-.55,0-1-.23-1-.5s.45-.5,1-.5h10.5c.55,0,1,.23,1,.5Z"></path></g><g><path style="fill: #fff; stroke-width: 0px;" d="m56.25,40c0,.27-.45.5-1,.5h-10.5c-.55,0-1-.23-1-.5s.45-.5,1-.5h10.5c.55,0,1,.23,1,.5Z"></path><path style="fill: none; stroke: #fff; stroke-miterlimit: 10;" d="m56.25,40c0,.27-.45.5-1,.5h-10.5c-.55,0-1-.23-1-.5s.45-.5,1-.5h10.5c.55,0,1,.23,1,.5Z"></path></g><g><path style="fill: #fff; stroke-width: 0px;" d="m56.25,55c0,.27-.45.5-1,.5h-10.5c-.55,0-1-.23-1-.5s.45-.5,1-.5h10.5c.55,0,1,.23,1,.5Z"></path><path style="fill: none; stroke: #fff; stroke-miterlimit: 10;" d="m56.25,55c0,.27-.45.5-1,.5h-10.5c-.55,0-1-.23-1-.5s.45-.5,1-.5h10.5c.55,0,1,.23,1,.5Z"></path></g><g><circle style="fill: #fff; stroke: #fff; stroke-miterlimit: 10;" r=".75" cy="25" cx="32.5"></circle><circle style="fill: #fff; stroke: #fff; stroke-miterlimit: 10;" r=".75" cy="25" cx="27.5"></circle><circle style="fill: #fff; stroke: #fff; stroke-miterlimit: 10;" r=".75" cy="25" cx="22.5"></circle></g><g><circle style="fill: #fff; stroke: #fff; stroke-miterlimit: 10;" r=".75" cy="40" cx="32.5"></circle><circle style="fill: #fff; stroke: #fff; stroke-miterlimit: 10;" r=".75" cy="40" cx="27.5"></circle><circle style="fill: #fff; stroke: #fff; stroke-miterlimit: 10;" r=".75" cy="40" cx="22.5"></circle></g><g><circle style="fill: #fff; stroke: #fff; stroke-miterlimit: 10;" r=".75" cy="55" cx="32.5"></circle><circle style="fill: #fff; stroke: #fff; stroke-miterlimit: 10;" r=".75" cy="55" cx="27.5"></circle><circle style="fill: #fff; stroke: #fff; stroke-miterlimit: 10;" r=".75" cy="55" cx="22.5"></circle></g></g></svg></g></g></g><g transform="translate(-165.81056030526545,184.18080005008645)" class="architecture-service"><g transform="translate(40, 80)" text-anchor="middle" dominant-baseline="middle" alignment-baseline="middle" dy="1em"><g><rect style="stroke: none" class="background"></rect><text style="" y="-10.1"><tspan dy="1.1em" y="-0.1em" x="0" class="text-outer-tspan"><tspan font-weight="normal" class="text-inner-tspan" font-style="normal">FilesService</tspan></tspan></text></g></g><g><g><svg viewBox="0 0 80 80" height="80" width="80" xmlns="http://www.w3.org/2000/svg"><g><rect style="fill: #087ebf; stroke-width: 0px;" height="80" width="80"></rect><rect style="fill: none; stroke: #fff; stroke-miterlimit: 10; stroke-width: 2px;" ry="2" rx="2" height="45" width="45" y="17.5" x="17.5"></rect><line style="fill: none; stroke: #fff; stroke-miterlimit: 10; stroke-width: 2px;" y2="32.5" x2="62.5" y1="32.5" x1="17.5"></line><line style="fill: none; stroke: #fff; stroke-miterlimit: 10; stroke-width: 2px;" y2="47.5" x2="62.5" y1="47.5" x1="17.5"></line><g><path style="fill: #fff; stroke-width: 0px;" d="m56.25,25c0,.27-.45.5-1,.5h-10.5c-.55,0-1-.23-1-.5s.45-.5,1-.5h10.5c.55,0,1,.23,1,.5Z"></path><path style="fill: none; stroke: #fff; stroke-miterlimit: 10;" d="m56.25,25c0,.27-.45.5-1,.5h-10.5c-.55,0-1-.23-1-.5s.45-.5,1-.5h10.5c.55,0,1,.23,1,.5Z"></path></g><g><path style="fill: #fff; stroke-width: 0px;" d="m56.25,40c0,.27-.45.5-1,.5h-10.5c-.55,0-1-.23-1-.5s.45-.5,1-.5h10.5c.55,0,1,.23,1,.5Z"></path><path style="fill: none; stroke: #fff; stroke-miterlimit: 10;" d="m56.25,40c0,.27-.45.5-1,.5h-10.5c-.55,0-1-.23-1-.5s.45-.5,1-.5h10.5c.55,0,1,.23,1,.5Z"></path></g><g><path style="fill: #fff; stroke-width: 0px;" d="m56.25,55c0,.27-.45.5-1,.5h-10.5c-.55,0-1-.23-1-.5s.45-.5,1-.5h10.5c.55,0,1,.23,1,.5Z"></path><path style="fill: none; stroke: #fff; stroke-miterlimit: 10;" d="m56.25,55c0,.27-.45.5-1,.5h-10.5c-.55,0-1-.23-1-.5s.45-.5,1-.5h10.5c.55,0,1,.23,1,.5Z"></path></g><g><circle style="fill: #fff; stroke: #fff; stroke-miterlimit: 10;" r=".75" cy="25" cx="32.5"></circle><circle style="fill: #fff; stroke: #fff; stroke-miterlimit: 10;" r=".75" cy="25" cx="27.5"></circle><circle style="fill: #fff; stroke: #fff; stroke-miterlimit: 10;" r=".75" cy="25" cx="22.5"></circle></g><g><circle style="fill: #fff; stroke: #fff; stroke-miterlimit: 10;" r=".75" cy="40" cx="32.5"></circle><circle style="fill: #fff; stroke: #fff; stroke-miterlimit: 10;" r=".75" cy="40" cx="27.5"></circle><circle style="fill: #fff; stroke: #fff; stroke-miterlimit: 10;" r=".75" cy="40" cx="22.5"></circle></g><g><circle style="fill: #fff; stroke: #fff; stroke-miterlimit: 10;" r=".75" cy="55" cx="32.5"></circle><circle style="fill: #fff; stroke: #fff; stroke-miterlimit: 10;" r=".75" cy="55" cx="27.5"></circle><circle style="fill: #fff; stroke: #fff; stroke-miterlimit: 10;" r=".75" cy="55" cx="22.5"></circle></g></g></svg></g></g></g><g transform="translate(-57.812848442190244,-180.24269747684107)" class="architecture-service"><g transform="translate(40, 80)" text-anchor="middle" dominant-baseline="middle" alignment-baseline="middle" dy="1em"><g><rect style="stroke: none" class="background"></rect><text style="" y="-10.1"><tspan dy="1.1em" y="-0.1em" x="0" class="text-outer-tspan"><tspan font-weight="normal" class="text-inner-tspan" font-style="normal">AutomationsSer</tspan></tspan><tspan dy="1.1em" y="1em" x="0" class="text-outer-tspan"><tspan font-weight="normal" class="text-inner-tspan" font-style="normal">vice</tspan></tspan></text></g></g><g><g><svg viewBox="0 0 80 80" height="80" width="80" xmlns="http://www.w3.org/2000/svg"><g><rect style="fill: #087ebf; stroke-width: 0px;" height="80" width="80"></rect><rect style="fill: none; stroke: #fff; stroke-miterlimit: 10; stroke-width: 2px;" ry="2" rx="2" height="45" width="45" y="17.5" x="17.5"></rect><line style="fill: none; stroke: #fff; stroke-miterlimit: 10; stroke-width: 2px;" y2="32.5" x2="62.5" y1="32.5" x1="17.5"></line><line style="fill: none; stroke: #fff; stroke-miterlimit: 10; stroke-width: 2px;" y2="47.5" x2="62.5" y1="47.5" x1="17.5"></line><g><path style="fill: #fff; stroke-width: 0px;" d="m56.25,25c0,.27-.45.5-1,.5h-10.5c-.55,0-1-.23-1-.5s.45-.5,1-.5h10.5c.55,0,1,.23,1,.5Z"></path><path style="fill: none; stroke: #fff; stroke-miterlimit: 10;" d="m56.25,25c0,.27-.45.5-1,.5h-10.5c-.55,0-1-.23-1-.5s.45-.5,1-.5h10.5c.55,0,1,.23,1,.5Z"></path></g><g><path style="fill: #fff; stroke-width: 0px;" d="m56.25,40c0,.27-.45.5-1,.5h-10.5c-.55,0-1-.23-1-.5s.45-.5,1-.5h10.5c.55,0,1,.23,1,.5Z"></path><path style="fill: none; stroke: #fff; stroke-miterlimit: 10;" d="m56.25,40c0,.27-.45.5-1,.5h-10.5c-.55,0-1-.23-1-.5s.45-.5,1-.5h10.5c.55,0,1,.23,1,.5Z"></path></g><g><path style="fill: #fff; stroke-width: 0px;" d="m56.25,55c0,.27-.45.5-1,.5h-10.5c-.55,0-1-.23-1-.5s.45-.5,1-.5h10.5c.55,0,1,.23,1,.5Z"></path><path style="fill: none; stroke: #fff; stroke-miterlimit: 10;" d="m56.25,55c0,.27-.45.5-1,.5h-10.5c-.55,0-1-.23-1-.5s.45-.5,1-.5h10.5c.55,0,1,.23,1,.5Z"></path></g><g><circle style="fill: #fff; stroke: #fff; stroke-miterlimit: 10;" r=".75" cy="25" cx="32.5"></circle><circle style="fill: #fff; stroke: #fff; stroke-miterlimit: 10;" r=".75" cy="25" cx="27.5"></circle><circle style="fill: #fff; stroke: #fff; stroke-miterlimit: 10;" r=".75" cy="25" cx="22.5"></circle></g><g><circle style="fill: #fff; stroke: #fff; stroke-miterlimit: 10;" r=".75" cy="40" cx="32.5"></circle><circle style="fill: #fff; stroke: #fff; stroke-miterlimit: 10;" r=".75" cy="40" cx="27.5"></circle><circle style="fill: #fff; stroke: #fff; stroke-miterlimit: 10;" r=".75" cy="40" cx="22.5"></circle></g><g><circle style="fill: #fff; stroke: #fff; stroke-miterlimit: 10;" r=".75" cy="55" cx="32.5"></circle><circle style="fill: #fff; stroke: #fff; stroke-miterlimit: 10;" r=".75" cy="55" cx="27.5"></circle><circle style="fill: #fff; stroke: #fff; stroke-miterlimit: 10;" r=".75" cy="55" cx="22.5"></circle></g></g></svg></g></g></g><g transform="translate(-198.22780135034492,16.321615924927904)" class="architecture-service"><g transform="translate(40, 80)" text-anchor="middle" dominant-baseline="middle" alignment-baseline="middle" dy="1em"><g><rect style="stroke: none" class="background"></rect><text style="" y="-10.1"><tspan dy="1.1em" y="-0.1em" x="0" class="text-outer-tspan"><tspan font-weight="normal" class="text-inner-tspan" font-style="normal">WebhooksServic</tspan></tspan><tspan dy="1.1em" y="1em" x="0" class="text-outer-tspan"><tspan font-weight="normal" class="text-inner-tspan" font-style="normal">e</tspan></tspan></text></g></g><g><g><svg viewBox="0 0 80 80" height="80" width="80" xmlns="http://www.w3.org/2000/svg"><g><rect style="fill: #087ebf; stroke-width: 0px;" height="80" width="80"></rect><rect style="fill: none; stroke: #fff; stroke-miterlimit: 10; stroke-width: 2px;" ry="2" rx="2" height="45" width="45" y="17.5" x="17.5"></rect><line style="fill: none; stroke: #fff; stroke-miterlimit: 10; stroke-width: 2px;" y2="32.5" x2="62.5" y1="32.5" x1="17.5"></line><line style="fill: none; stroke: #fff; stroke-miterlimit: 10; stroke-width: 2px;" y2="47.5" x2="62.5" y1="47.5" x1="17.5"></line><g><path style="fill: #fff; stroke-width: 0px;" d="m56.25,25c0,.27-.45.5-1,.5h-10.5c-.55,0-1-.23-1-.5s.45-.5,1-.5h10.5c.55,0,1,.23,1,.5Z"></path><path style="fill: none; stroke: #fff; stroke-miterlimit: 10;" d="m56.25,25c0,.27-.45.5-1,.5h-10.5c-.55,0-1-.23-1-.5s.45-.5,1-.5h10.5c.55,0,1,.23,1,.5Z"></path></g><g><path style="fill: #fff; stroke-width: 0px;" d="m56.25,40c0,.27-.45.5-1,.5h-10.5c-.55,0-1-.23-1-.5s.45-.5,1-.5h10.5c.55,0,1,.23,1,.5Z"></path><path style="fill: none; stroke: #fff; stroke-miterlimit: 10;" d="m56.25,40c0,.27-.45.5-1,.5h-10.5c-.55,0-1-.23-1-.5s.45-.5,1-.5h10.5c.55,0,1,.23,1,.5Z"></path></g><g><path style="fill: #fff; stroke-width: 0px;" d="m56.25,55c0,.27-.45.5-1,.5h-10.5c-.55,0-1-.23-1-.5s.45-.5,1-.5h10.5c.55,0,1,.23,1,.5Z"></path><path style="fill: none; stroke: #fff; stroke-miterlimit: 10;" d="m56.25,55c0,.27-.45.5-1,.5h-10.5c-.55,0-1-.23-1-.5s.45-.5,1-.5h10.5c.55,0,1,.23,1,.5Z"></path></g><g><circle style="fill: #fff; stroke: #fff; stroke-miterlimit: 10;" r=".75" cy="25" cx="32.5"></circle><circle style="fill: #fff; stroke: #fff; stroke-miterlimit: 10;" r=".75" cy="25" cx="27.5"></circle><circle style="fill: #fff; stroke: #fff; stroke-miterlimit: 10;" r=".75" cy="25" cx="22.5"></circle></g><g><circle style="fill: #fff; stroke: #fff; stroke-miterlimit: 10;" r=".75" cy="40" cx="32.5"></circle><circle style="fill: #fff; stroke: #fff; stroke-miterlimit: 10;" r=".75" cy="40" cx="27.5"></circle><circle style="fill: #fff; stroke: #fff; stroke-miterlimit: 10;" r=".75" cy="40" cx="22.5"></circle></g><g><circle style="fill: #fff; stroke: #fff; stroke-miterlimit: 10;" r=".75" cy="55" cx="32.5"></circle><circle style="fill: #fff; stroke: #fff; stroke-miterlimit: 10;" r=".75" cy="55" cx="27.5"></circle><circle style="fill: #fff; stroke: #fff; stroke-miterlimit: 10;" r=".75" cy="55" cx="22.5"></circle></g></g></svg></g></g></g><g transform="translate(2.1792629146636884,16.321615924927904)" class="architecture-service"><g transform="translate(40, 80)" text-anchor="middle" dominant-baseline="middle" alignment-baseline="middle" dy="1em"><g><rect style="stroke: none" class="background"></rect><text style="" y="-10.1"><tspan dy="1.1em" y="-0.1em" x="0" class="text-outer-tspan"><tspan font-weight="normal" class="text-inner-tspan" font-style="normal">GatewayAPI</tspan></tspan></text></g></g><g><g><svg viewBox="0 0 80 80" height="80" width="80" xmlns="http://www.w3.org/2000/svg"><g><rect style="fill: #087ebf; stroke-width: 0px;" height="80" width="80"></rect><rect style="fill: none; stroke: #fff; stroke-miterlimit: 10; stroke-width: 2px;" ry="2" rx="2" height="45" width="45" y="17.5" x="17.5"></rect><line style="fill: none; stroke: #fff; stroke-miterlimit: 10; stroke-width: 2px;" y2="32.5" x2="62.5" y1="32.5" x1="17.5"></line><line style="fill: none; stroke: #fff; stroke-miterlimit: 10; stroke-width: 2px;" y2="47.5" x2="62.5" y1="47.5" x1="17.5"></line><g><path style="fill: #fff; stroke-width: 0px;" d="m56.25,25c0,.27-.45.5-1,.5h-10.5c-.55,0-1-.23-1-.5s.45-.5,1-.5h10.5c.55,0,1,.23,1,.5Z"></path><path style="fill: none; stroke: #fff; stroke-miterlimit: 10;" d="m56.25,25c0,.27-.45.5-1,.5h-10.5c-.55,0-1-.23-1-.5s.45-.5,1-.5h10.5c.55,0,1,.23,1,.5Z"></path></g><g><path style="fill: #fff; stroke-width: 0px;" d="m56.25,40c0,.27-.45.5-1,.5h-10.5c-.55,0-1-.23-1-.5s.45-.5,1-.5h10.5c.55,0,1,.23,1,.5Z"></path><path style="fill: none; stroke: #fff; stroke-miterlimit: 10;" d="m56.25,40c0,.27-.45.5-1,.5h-10.5c-.55,0-1-.23-1-.5s.45-.5,1-.5h10.5c.55,0,1,.23,1,.5Z"></path></g><g><path style="fill: #fff; stroke-width: 0px;" d="m56.25,55c0,.27-.45.5-1,.5h-10.5c-.55,0-1-.23-1-.5s.45-.5,1-.5h10.5c.55,0,1,.23,1,.5Z"></path><path style="fill: none; stroke: #fff; stroke-miterlimit: 10;" d="m56.25,55c0,.27-.45.5-1,.5h-10.5c-.55,0-1-.23-1-.5s.45-.5,1-.5h10.5c.55,0,1,.23,1,.5Z"></path></g><g><circle style="fill: #fff; stroke: #fff; stroke-miterlimit: 10;" r=".75" cy="25" cx="32.5"></circle><circle style="fill: #fff; stroke: #fff; stroke-miterlimit: 10;" r=".75" cy="25" cx="27.5"></circle><circle style="fill: #fff; stroke: #fff; stroke-miterlimit: 10;" r=".75" cy="25" cx="22.5"></circle></g><g><circle style="fill: #fff; stroke: #fff; stroke-miterlimit: 10;" r=".75" cy="40" cx="32.5"></circle><circle style="fill: #fff; stroke: #fff; stroke-miterlimit: 10;" r=".75" cy="40" cx="27.5"></circle><circle style="fill: #fff; stroke: #fff; stroke-miterlimit: 10;" r=".75" cy="40" cx="22.5"></circle></g><g><circle style="fill: #fff; stroke: #fff; stroke-miterlimit: 10;" r=".75" cy="55" cx="32.5"></circle><circle style="fill: #fff; stroke: #fff; stroke-miterlimit: 10;" r=".75" cy="55" cx="27.5"></circle><circle style="fill: #fff; stroke: #fff; stroke-miterlimit: 10;" r=".75" cy="55" cx="22.5"></circle></g></g></svg></g></g></g></g><g class="architecture-groups"><rect class="node-bkg" height="581.2697369467553" width="606.4556027006897" y="-225.13486847337765" x="-265.227801350345"></rect><g><g transform="translate(-264.227801350345, -224.13486847337765)"><g><svg viewBox="0 0 80 80" height="30" width="30" xmlns="http://www.w3.org/2000/svg"><g><rect style="fill: #087ebf; stroke-width: 0px;" height="80" width="80"></rect><path style="fill: none; stroke: #fff; stroke-miterlimit: 10; stroke-width: 2px;" d="m65,47.5c0,2.76-2.24,5-5,5H20c-2.76,0-5-2.24-5-5,0-1.87,1.03-3.51,2.56-4.36-.04-.21-.06-.42-.06-.64,0-2.6,2.48-4.74,5.65-4.97,1.65-4.51,6.34-7.76,11.85-7.76.86,0,1.69.08,2.5.23,2.09-1.57,4.69-2.5,7.5-2.5,6.1,0,11.19,4.38,12.28,10.17,2.14.56,3.72,2.51,3.72,4.83,0,.03,0,.07-.01.1,2.29.46,4.01,2.48,4.01,4.9Z"></path></g></svg></g></g><g transform="translate(-231.22780135034498, -218.13486847337765)" text-anchor="start" dominant-baseline="start" alignment-baseline="middle" dy="1em"><g><rect style="stroke: none" class="background"></rect><text style="" y="-10.1"><tspan dy="1.1em" y="-0.1em" x="0" class="text-outer-tspan"><tspan font-weight="normal" class="text-inner-tspan" font-style="normal">Gateway</tspan></tspan></text></g></g></g></g></svg>